<svg preserveAspectRatio="none" width="100%" height="100%" overflow="visible" style="display: block;" viewBox="0 0 19.575 20" fill="none" xmlns="http://www.w3.org/2000/svg">
<g id="Group">
<path id="Vector" d="M19.575 10.225C19.575 9.56667 19.5167 8.94167 19.4167 8.33333H10V12.0917H15.3917C15.15 13.325 14.4417 14.3667 13.3917 15.075V17.575H16.6083C18.4917 15.8333 19.575 13.2667 19.575 10.225Z" fill="var(--fill-0, #4285F4)"/>
<path id="Vector_2" d="M10 20C12.7 20 14.9583 19.1 16.6083 17.575L13.3917 15.075C12.4917 15.675 11.35 16.0417 10 16.0417C7.39167 16.0417 5.18333 14.2833 4.39167 11.9083H1.075V14.4833C2.71667 17.75 6.09167 20 10 20Z" fill="var(--fill-0, #34A853)"/>
<path id="Vector_3" d="M4.39167 11.9083C4.18333 11.3083 4.075 10.6667 4.075 10C4.075 9.33333 4.19167 8.69167 4.39167 8.09167V5.51667H1.075C0.391666 6.86667 0 8.38333 0 10C0 11.6167 0.391666 13.1333 1.075 14.4833L4.39167 11.9083Z" fill="var(--fill-0, #FBBC05)"/>
<path id="Vector_4" d="M10 3.95833C11.475 3.95833 12.7917 4.46667 13.8333 5.45834L16.6833 2.60833C14.9583 0.991667 12.7 0 10 0C6.09167 0 2.71667 2.25 1.075 5.51667L4.39167 8.09167C5.18333 5.71667 7.39167 3.95833 10 3.95833Z" fill="var(--fill-0, #EA4335)"/>
</g>
</svg>
