<svg width="280" height="375" viewBox="0 0 279.605 375" fill="none" xmlns="http://www.w3.org/2000/svg">
<g id="Horizon Logo">
<g id="Vector">
<path d="M68.8259 186.199H210.165V247.65H68.8259V186.199Z" fill="white"/>
<path d="M215.081 199.103C215.081 178.894 207.117 159.512 192.942 145.222C178.767 130.932 159.542 122.903 139.495 122.903C119.449 122.903 100.223 130.932 86.0482 145.222C71.8732 159.512 63.9097 178.894 63.9097 199.103L139.495 199.103H215.081Z" fill="white"/>
<path fill-rule="evenodd" clip-rule="evenodd" d="M139.803 218.153C183.075 218.153 218.153 183.075 218.153 139.803C218.153 96.5306 183.075 61.4517 139.803 61.4517C96.5306 61.4517 61.4517 96.5306 61.4517 139.803C61.4517 183.075 96.5306 218.153 139.803 218.153ZM139.803 279.605C217.013 279.605 279.605 217.013 279.605 139.803C279.605 62.5917 217.013 0 139.803 0C62.5917 0 0 62.5917 0 139.803C0 217.013 62.5917 279.605 139.803 279.605Z" fill="white"/>
</g>
<g id="Full + UI 1" clip-path="url(#clip0_0_15)">
<path id="Vector_2" d="M255.452 337.668V352.62C255.452 355.629 253.455 357.636 250.459 357.636C247.463 357.636 245.466 355.629 245.466 352.62V337.668H240.306V352.62C240.306 358.024 244.367 362.167 250.459 362.167C256.55 362.167 260.611 358.024 260.611 352.62V337.668H255.452V337.668ZM264.621 361.778H269.78V337.668H264.621V361.778Z" fill="white"/>
<path id="Vector_3" fill-rule="evenodd" clip-rule="evenodd" d="M267.677 329.349H241.832C237.715 329.349 234.377 332.718 234.377 336.874V362.959C234.377 367.115 237.715 370.484 241.832 370.484H267.677C271.794 370.484 275.132 367.115 275.132 362.959V336.874C275.132 332.718 271.794 329.349 267.677 329.349V329.349ZM241.832 324.834C235.245 324.834 229.904 330.225 229.904 336.874V362.959C229.904 369.608 235.245 374.999 241.832 374.999H267.677C274.264 374.999 279.605 369.608 279.605 362.959V336.874C279.605 330.225 274.264 324.834 267.677 324.834H241.832V324.834Z" fill="white"/>
<path id="Vector_4" d="M51.189 362.006H68.3016V369.516H51.189V362.006Z" fill="white"/>
<path id="Vector_5" d="M68.8968 363.584C68.8968 361.115 67.9326 358.746 66.2164 357C64.5002 355.253 62.1725 354.272 59.7453 354.272C57.3182 354.272 54.9905 355.253 53.2742 357C51.558 358.746 50.5938 361.115 50.5938 363.584H68.8968Z" fill="white"/>
<path id="Vector_6" fill-rule="evenodd" clip-rule="evenodd" d="M59.7825 365.91C65.0217 365.91 69.2689 361.624 69.2689 356.336C69.2689 351.048 65.0217 346.761 59.7825 346.761C54.5434 346.761 50.2962 351.048 50.2962 356.336C50.2962 361.624 54.5434 365.91 59.7825 365.91ZM59.7825 373.42C69.1309 373.42 76.7091 365.771 76.7091 356.336C76.7091 346.9 69.1309 339.251 59.7825 339.251C50.4342 339.251 42.8559 346.9 42.8559 356.336C42.8559 365.771 50.4342 373.42 59.7825 373.42ZM167.815 365.91C173.055 365.91 177.301 361.624 177.301 356.336C177.301 351.048 173.055 346.761 167.815 346.761C162.576 346.761 158.329 351.048 158.329 356.336C158.329 361.624 162.576 365.91 167.815 365.91ZM167.815 373.42C177.163 373.42 184.742 365.771 184.742 356.336C184.742 346.9 177.163 339.251 167.815 339.251C158.467 339.251 150.889 346.9 150.889 356.336C150.889 365.771 158.467 373.42 167.815 373.42Z" fill="white"/>
<path id="Vector_7" d="M1.48673e-05 373.416H7.8643V354.518H28.586V373.416H36.5126V326.486H28.586V347.526H7.8643V326.486H1.48673e-05V373.416ZM99.2278 339.085C95.1089 339.085 91.8635 340.471 90.1158 344.187V339.463H83.0631V373.416H90.5525V354.203C90.5525 348.912 93.6729 345.888 98.2919 345.888H102.349V339.085H99.2278ZM106.767 334.99H114.257V326.486H106.767V334.99V334.99ZM106.767 373.416H114.257V339.463H106.767V373.416ZM118.597 373.416H146.185V366.613H128.708L146.122 345.636V339.463H119.409V346.266H136.26L118.597 367.243V373.416ZM206.148 338.707C201.966 338.707 198.471 340.408 196.599 343.557V339.463H189.546V373.416H197.035V353.258C197.035 348.66 199.907 345.699 204.213 345.699C208.458 345.699 211.328 348.66 211.328 353.258V373.416H218.818V351.368C218.818 343.935 213.638 338.707 206.148 338.707V338.707Z" fill="white"/>
</g>
</g>
<defs>
<clipPath id="clip0_0_15">
<rect width="279.605" height="50.1644" fill="white" transform="translate(7.43365e-06 324.835)"/>
</clipPath>
</defs>
</svg>
